<svg version="1.1" xmlns="http://www.w3.org/2000/svg" xmlns:xlink="http://www.w3.org/1999/xlink" width="50" height="50" viewBox="0,0,256,256"><g fill="none" fill-rule="nonzero" stroke="none" stroke-width="1" stroke-linecap="butt" stroke-linejoin="miter" stroke-miterlimit="10" stroke-dasharray="" stroke-dashoffset="0" font-family="none" font-weight="none" font-size="none" text-anchor="none" style="mix-blend-mode: normal"><g transform="scale(5.12,5.12)"><rect x="0" y="0" width="50" height="50" rx="5" ry="0" fill="#ba1837"></rect><path d="M30.7121,34.6406c-0.3155,0 -0.5715,0.2625 -0.5715,0.586c0,0.3234 0.256,0.5859 0.5715,0.5859c0.3154,0 0.5714,-0.2625 0.5714,-0.5859c0,-0.3235 -0.256,-0.586 -0.5714,-0.586z" fill="#ffffff"></path><path d="M19.2863,34.6406c-0.3155,0 -0.5715,0.2625 -0.5715,0.586c0,0.3234 0.256,0.5859 0.5715,0.5859c0.3154,0 0.5714,-0.2625 0.5714,-0.5859c0,-0.3235 -0.256,-0.586 -0.5714,-0.586z" fill="#ffffff"></path><path d="M35.9511,31.6068c-0.6432,-1.0206 -1.5272,-1.8315 -2.5626,-2.3553c-0.0874,-0.0831 -0.1996,-0.1388 -0.3245,-0.153c-0.749,-0.3259 -1.5385,-0.4913 -2.3497,-0.4913h-1.7143v-1.5454c0.9921,-0.8725 1.7053,-2.0282 2.0511,-3.3163h0.2346c1.2604,0 2.2857,-1.0511 2.2857,-2.343c0,-0.6123 -0.2305,-1.1701 -0.6069,-1.588c0.0359,-0.0313 0.071,-0.0638 0.1047,-0.0983c0.3239,-0.3321 0.5022,-0.7733 0.5022,-1.2425c0,-0.771 -0.4872,-1.4272 -1.1624,-1.6633c-0.2019,-2.6935 -2.0461,-4.9953 -4.5852,-5.7167c-0.1505,-0.8055 -0.799,-1.58198 -1.6809,-1.58198h-2.2858c-0.8819,0 -1.5304,0.77648 -1.6809,1.58198c-2.5389,0.7214 -4.3829,3.0227 -4.5851,5.7159c-0.2458,0.0855 -0.4713,0.228 -0.6603,0.4217c-0.3239,0.332 -0.5022,0.7732 -0.5022,1.2424c0,0.5367 0.2362,1.0178 0.6074,1.3403c-0.3767,0.4179 -0.6074,0.976 -0.6074,1.5885c0,1.2919 1.0253,2.343 2.2857,2.343h0.233c0.2887,1.0752 0.8361,2.0624 1.5997,2.8778c0.1435,0.1534 0.2956,0.2995 0.453,0.4381v1.5458h-1.7143c-0.8113,0 -1.6008,0.1654 -2.3497,0.4912c-0.1248,0.0143 -0.2371,0.07 -0.3244,0.1531c-1.0356,0.5238 -1.9195,1.3347 -2.5627,2.3553c-0.6862,1.0887 -1.0489,2.3403 -1.0489,3.6194v3.6902c0,0.3235 0.2558,0.5858 0.5714,0.5858h22.8572c0.3156,0 0.5714,-0.2623 0.5714,-0.5858v-3.6902c0,-1.2791 -0.3627,-2.5307 -1.0489,-3.6194zM16.4286,38.3307h-2.2857v-3.1045c0,-1.7817 0.8904,-3.4894 2.2857,-4.5031zM31.2857,22.574h-0.026c0.017,-0.1949 0.026,-0.3905 0.026,-0.5858v-1.7572c0.6302,0 1.1429,0.5255 1.1429,1.1715c0,0.6459 -0.5127,1.1715 -1.1429,1.1715zM22.1429,12.3315v2.6277c0,0.3235 0.2558,0.5858 0.5714,0.5858c0.3156,0 0.5714,-0.2623 0.5714,-0.5858v-3.3937c0,-0.0015 0,-0.003 0,-0.0045v-0.1163c0,-0.3629 0.2991,-0.7615 0.5714,-0.7615h2.2858c0.2723,0 0.5714,0.3986 0.5714,0.7615v0.1163c0,0.0015 0,0.003 0,0.0045v3.3937c0,0.3235 0.2558,0.5858 0.5714,0.5858c0.3156,0 0.5714,-0.2623 0.5714,-0.5858v-2.6277c1.8452,0.6693 3.1772,2.3809 3.3967,4.385h-12.5076c0.2195,-2.0041 1.5515,-3.7157 3.3967,-4.385zM18.7143,22.574c-0.6302,0 -1.1429,-0.5256 -1.1429,-1.1715c0,-0.646 0.5127,-1.1715 1.1429,-1.1715v1.7572c0,0.1953 0.009,0.391 0.026,0.5858zM18.7143,19.0595h-0.5714c-0.3151,0 -0.5715,-0.2628 -0.5715,-0.5858c0,-0.1563 0.0595,-0.3033 0.1675,-0.414c0.1081,-0.1108 0.2515,-0.1717 0.404,-0.1717h13.7142c0.3151,0 0.5715,0.2627 0.5715,0.5857c0,0.1563 -0.0595,0.3034 -0.1675,0.414c-0.108,0.1108 -0.2515,0.1718 -0.404,0.1718h-0.5714h-0.5714h-11.4286zM19.961,23.0533c-0.0012,-0.0064 -0.0023,-0.0127 -0.0036,-0.019c-0.0664,-0.3438 -0.1003,-0.6956 -0.1003,-1.0461v-1.7572h10.2858v1.7572c0,0.3502 -0.0339,0.7018 -0.1003,1.0459c-0.0013,0.0063 -0.0024,0.0127 -0.0036,0.0191c-0.2553,1.3066 -0.9621,2.4762 -1.9912,3.2943c-0.8941,0.7119 -1.948,1.0882 -3.0478,1.0882c-1.0998,0 -2.1537,-0.3763 -3.0486,-1.0888c-0.2049,-0.1625 -0.3999,-0.3423 -0.5797,-0.5346c-0.7209,-0.7698 -1.2084,-1.7235 -1.4107,-2.759zM24.4286,38.3307h-4.5715v-1.3472c0,-0.3236 -0.2558,-0.5858 -0.5714,-0.5858c-0.3156,0 -0.5714,0.2622 -0.5714,0.5858v1.3472h-1.1429v-8.2313c0.3709,-0.1434 0.7529,-0.2389 1.1429,-0.286v3.6555c0,0.3236 0.2558,0.5858 0.5714,0.5858c0.3156,0 0.5714,-0.2622 0.5714,-0.5858v-3.6902h1.4695l3.102,3.3388zM22.1429,28.9587v-1.0911c0.8817,0.4859 1.8529,0.7396 2.8571,0.7396c1.0042,0 1.9755,-0.2537 2.8571,-0.7395v1.091l-2.8571,3.0752zM32.4286,38.3307h-1.1429v-1.3472c0,-0.3236 -0.2558,-0.5858 -0.5714,-0.5858c-0.3156,0 -0.5714,0.2622 -0.5714,0.5858v1.3472h-4.5715v-5.2132l3.102,-3.3388h1.4695v3.6902c0,0.3236 0.2558,0.5858 0.5714,0.5858c0.3156,0 0.5714,-0.2622 0.5714,-0.5858v-3.6555c0.39,0.0471 0.772,0.1427 1.1429,0.286zM35.8571,38.3307h-2.2857v-7.6077c1.3953,1.0138 2.2857,2.7215 2.2857,4.5032z" fill="#ffffff"></path></g></g></svg>