<svg version="1.1" xmlns="http://www.w3.org/2000/svg" xmlns:xlink="http://www.w3.org/1999/xlink" width="50" height="50" viewBox="0,0,256,256"><defs><clipPath id="clip-1"><rect x="10" y="10" width="30" height="30" id="clip0_115_50" fill="none"></rect></clipPath></defs><g fill="none" fill-rule="nonzero" stroke="none" stroke-width="1" stroke-linecap="butt" stroke-linejoin="miter" stroke-miterlimit="10" stroke-dasharray="" stroke-dashoffset="0" font-family="none" font-weight="none" font-size="none" text-anchor="none" style="mix-blend-mode: normal"><g transform="scale(5.12,5.12)"><rect x="0" y="0" width="50" height="50" rx="5" ry="0" fill="#ba1837"></rect><g clip-path="url(#clip-1)"><path d="M38.4615,15h-26.923c-0.8462,0 -1.5385,0.6923 -1.5385,1.5384v16.9231c0,0.8461 0.6923,1.5385 1.5385,1.5385h26.9231c0.8461,0 1.5385,-0.6922 1.5385,-1.5385v-16.9231c-0.0001,-0.8461 -0.6924,-1.5384 -1.5386,-1.5384zM37.8842,16.1538l-11.9992,9.0001c-0.2157,0.1642 -0.5469,0.2669 -0.8851,0.2654c-0.338,0.0015 -0.6692,-0.1012 -0.885,-0.2654l-11.9991,-9.0001zM31.4746,25.7477l6.5385,8.077c0.0065,0.0081 0.0146,0.0142 0.0215,0.0216h-26.0692c0.0069,-0.0077 0.015,-0.0135 0.0215,-0.0216l6.5385,-8.077c0.2003,-0.2476 0.1624,-0.6107 -0.0858,-0.8115c-0.2477,-0.2004 -0.6108,-0.1624 -0.8112,0.0853l-6.4746,7.9981v-16.1447l12.2692,9.202c0.4612,0.3434 1.0223,0.4946 1.5769,0.4961c0.5538,-0.0011 1.1154,-0.1523 1.5769,-0.4961l12.2691,-9.202v16.1446l-6.4744,-7.998c-0.2004,-0.2477 -0.5638,-0.2857 -0.8112,-0.0853c-0.2481,0.2003 -0.2861,0.5639 -0.0857,0.8115z" fill="#ffffff"></path></g></g></g></svg>