<svg version="1.1" xmlns="http://www.w3.org/2000/svg" xmlns:xlink="http://www.w3.org/1999/xlink" width="50" height="50" viewBox="0,0,256,256"><g fill="none" fill-rule="nonzero" stroke="none" stroke-width="1" stroke-linecap="butt" stroke-linejoin="miter" stroke-miterlimit="10" stroke-dasharray="" stroke-dashoffset="0" font-family="none" font-weight="none" font-size="none" text-anchor="none" style="mix-blend-mode: normal"><g transform="scale(5.12,5.12)"><rect x="0" y="0" width="50" height="50" rx="5" ry="0" fill="#ba1837"></rect><path d="M30.3306,37.1312h-18.8842c-0.2232,0 -0.4464,-0.1786 -0.4464,-0.4465c0,-0.2678 0.1786,-0.4464 0.4464,-0.4464h18.8842c0.2232,0 0.4465,0.1786 0.4465,0.4464c0,0.2679 -0.2233,0.4465 -0.4465,0.4465z" fill="#ffffff"></path><path d="M30.3339,37.1285h-16.1609c-0.2232,0 -0.4464,-0.1785 -0.4464,-0.4463v-11.3804c0,-0.2232 0.1785,-0.4463 0.4464,-0.4463c0.2679,0 0.4464,0.1785 0.4464,0.4463v10.9341h15.7145c0.2232,0 0.4465,0.1786 0.4465,0.4463c0,0.2678 -0.2233,0.4463 -0.4465,0.4463z" fill="#ffffff"></path><path d="M13.009,26.1948c-0.5358,0 -1.0268,-0.1786 -1.4286,-0.5802c-0.3572,-0.3571 -0.5804,-0.8926 -0.5804,-1.4282c0,-0.4909 0.2232,-0.9818 0.5357,-1.3835l10.2234,-10.2201c1.4286,-1.4281 3.7054,-1.4281 5.134,0l4.375,4.3737c0.1786,0.1785 0.1786,0.4463 0,0.6248c-0.1785,0.1785 -0.4464,0.1785 -0.625,0l-4.375,-4.3737c-1.0715,-1.0711 -2.8126,-1.0711 -3.884,0l-10.1787,10.1755c-0.1786,0.2232 -0.3125,0.5356 -0.3125,0.8033c0,0.2232 0.0446,0.5356 0.3125,0.8034c0.4464,0.4463 1.2053,0.4463 1.6518,0l10.1787,-10.1755c0.1786,-0.1785 0.4464,-0.1785 0.625,0l3.7054,3.7042c0.1786,0.1785 0.1786,0.4463 0,0.6248c-0.1786,0.1785 -0.4464,0.1785 -0.625,0l-3.3929,-3.3918l-9.8662,9.8631c-0.4018,0.4016 -0.9375,0.5802 -1.4732,0.5802z" fill="#ffffff"></path><path d="M25.6882,37.1304h-6.3394c-0.2232,0 -0.4465,-0.1786 -0.4465,-0.4463v-8.1226c0,-0.714 0.5804,-1.3388 1.3393,-1.3388h4.5983c0.7143,0 1.2947,0.6248 1.2947,1.3388v8.1226c0,0.2231 -0.2232,0.4463 -0.4464,0.4463zM19.7952,36.2378h5.4465v-7.6763c0,-0.2677 -0.2232,-0.4463 -0.4018,-0.4463h-4.5983c-0.2678,0 -0.4464,0.2232 -0.4464,0.4463z" fill="#ffffff"></path><path d="M33.0961,37.0819c-0.5804,0 -1.1161,-0.3124 -1.4286,-0.8033c-1.5625,-2.5885 -5.0894,-8.8366 -5.0894,-11.5144c0,-3.5703 2.9019,-6.4712 6.4733,-6.4712c3.5715,0 6.518,2.9009 6.518,6.4712c0,1.8744 -1.6965,5.7126 -5.0001,11.5144c-0.3571,0.4909 -0.8929,0.8033 -1.4732,0.8033zM33.0514,19.1856c-3.0804,0 -5.5804,2.4992 -5.5804,5.5786c0,2.4993 3.7947,9.1044 4.9554,11.0681c0.1339,0.2231 0.4018,0.4016 0.7143,0.4016c0.3125,0 0.5357,-0.1339 0.7143,-0.4016c3.9733,-7.0068 4.8215,-9.9077 4.8215,-11.0681c0,-3.0794 -2.5,-5.5786 -5.6251,-5.5786z" fill="#ffffff"></path><path d="M33.1011,28.9143c-2.2769,0 -4.1519,-1.8744 -4.1519,-4.1505c0,-2.2761 1.875,-4.1505 4.1519,-4.1505c2.2768,0 4.1518,1.8744 4.1518,4.1505c0,2.2761 -1.875,4.1505 -4.1518,4.1505zM33.1011,21.5059c-1.7858,0 -3.259,1.4727 -3.259,3.2579c0,1.7852 1.4732,3.2579 3.259,3.2579c1.7857,0 3.2589,-1.4727 3.2589,-3.2579c0,-1.7852 -1.4732,-3.2579 -3.2589,-3.2579z" fill="#ffffff"></path><path d="M20.6886,32.9771c-0.2232,0 -0.4464,-0.1785 -0.4464,-0.4464v-0.5804c0,-0.2232 0.1786,-0.4464 0.4464,-0.4464c0.2679,0 0.4465,0.1786 0.4465,0.4464v0.5804c0,0.2232 -0.2233,0.4464 -0.4465,0.4464z" fill="#ffffff"></path></g></g></svg>